<svg xmlns="http://www.w3.org/2000/svg" width="750" height="1050" viewBox="0 0 750 1050">
  <defs>
    <!-- PT Ornate Frame gradient fill -->
    <linearGradient id="ptFrameFill" x1="0%" y1="100%" x2="0%" y2="0%">
      <stop offset="0%" stop-color="#F8F4E8"/>
      <stop offset="50%" stop-color="#E8E0D0"/>
      <stop offset="100%" stop-color="#F8F4E8"/>
    </linearGradient>
    <!-- PT Ornate Frame gradient stroke -->
    <linearGradient id="ptFrameStroke" x1="0%" y1="0%" x2="0%" y2="100%">
      <stop offset="0%" stop-color="#8B7355"/>
      <stop offset="50%" stop-color="#5C4A3A"/>
      <stop offset="100%" stop-color="#8B7355"/>
    </linearGradient>
  </defs>

  <!-- Main Card Frame (flY9z) -->
  <rect x="0" y="0" width="750" height="1050" rx="24" ry="24" fill="#F5F0E1"/>

  <!-- Title Area (UfhWj) - transparent fill, no visual -->

  <!-- Mana Cost Circles -->
  <!-- manaGeneric (7cTCQ) -->
  <circle cx="658" cy="44" r="16" fill="#CBBFAD"/>
  <!-- manaGreen1 (K1dmf) -->
  <circle cx="694" cy="44" r="16" fill="#7BA370"/>
  <!-- manaGreen2 (xI6VV) -->
  <circle cx="730" cy="44" r="16" fill="#7BA370"/>

  <!-- Type Line Bar (yXgBn) -->
  <rect x="24" y="620" width="702" height="40" rx="4" ry="4" fill="#F8F4E8" stroke="#8B7355" stroke-width="2"/>

  <!-- Text Box (h32rF) -->
  <rect x="24" y="670" width="702" height="280" rx="4" ry="4" fill="#F8F4E8" stroke="#8B7355" stroke-width="2"/>

  <!-- Artist Credit Area (0bezv) - transparent -->

  <!-- Paintbrush Icon (fBKua) -->
  <g transform="translate(24, 970)">
    <path d="M17.5 1.5c-0.8-0.8-2-0.8-2.8 0l-8.7 8.7-0.3 0.8c-0.2 0.8-0.6 1.5-1.2 2l-2.8 1.8c-0.2 0.1-0.2 0.4-0.1 0.6l0.8 0.8c0.2 0.2 0.5 0.2 0.6 0l1.8-2.8c0.5-0.6 1.2-1 2-1.2l0.8-0.3 8.7-8.7c0.8-0.8 0.8-2 0-2.8z m-10.2 10l8.5-8.5c0.2-0.2 0.5-0.2 0.7 0s0.2 0.5 0 0.7l-8.5 8.5-0.7-0.7z" fill="#1a1a1a"/>
  </g>

  <!-- PT Container (tvWDk) -->
  <g transform="translate(576, 900)">
    <!-- PT Shadow (AJqnP) -->
    <rect x="4" y="4" width="142" height="77" rx="8" ry="8" fill="#00000040"/>

    <!-- PT Ornate Frame (lqirI) -->
    <rect x="0" y="0" width="142" height="77" rx="8" ry="8" fill="url(#ptFrameFill)" stroke="url(#ptFrameStroke)" stroke-width="3"/>

    <!-- PT Inner Border (VDNjp) -->
    <rect x="6" y="6" width="130" height="65" rx="4" ry="4" fill="transparent" stroke="#A89880" stroke-width="1"/>
  </g>
</svg>
