<?xml version="1.0" encoding="UTF-8"?>
<svg id="Layer_1" data-name="Layer 1" xmlns="http://www.w3.org/2000/svg" viewBox="0 0 100 100">
  <defs>
    <style>
      .cls-1 {
        fill: #0d0f0f;
      }

      .cls-2 {
        fill: #cac5c0;
      }
    </style>
  </defs>
  <circle class="cls-2" cx="50" cy="50" r="50"/>
  <path class="cls-1" d="M23,52.43c0-9.79,2.06-18.81,6.19-27.07,5.12-10.24,12.12-15.35,21.01-15.35s15.67,4.36,20.6,13.06c4.13,7.19,6.19,15.54,6.19,25.05s-2.06,18.81-6.19,26.8c-5.03,10.06-12.03,15.08-21.01,15.08s-15.3-4.31-20.34-12.93c-4.31-7.36-6.46-15.58-6.46-24.65ZM34.31,47.98c0,12.93,1.93,22.98,5.79,30.17,2.69,5.03,6.15,7.54,10.37,7.54,10.15,0,15.22-10.51,15.22-31.52,0-9.24-.81-17.06-2.42-23.43-2.78-10.5-7.5-15.76-14.15-15.76-9.88,0-14.82,10.15-14.82,30.44v2.56Z"/>
</svg>