<?xml version="1.0" encoding="UTF-8"?>
<svg id="Layer_1" xmlns="http://www.w3.org/2000/svg" version="1.1" viewBox="0 0 100 100">
  <!-- Generator: Adobe Illustrator 29.8.4, SVG Export Plug-In . SVG Version: 2.1.1 Build 6)  -->
  <defs>
    <style>
      .st0 {
        fill: #0d0f0f;
      }

      .st1 {
        fill: #cac5c0;
      }
    </style>
  </defs>
  <circle class="st1" cx="50" cy="50" r="50"/>
  <path class="st0" d="M35.31,18.64v50.44c0,6,2.57,9,7.69,9h1.3v3.42h-26.87v-3.42h1.73c4.93,0,7.4-3,7.4-9v-33.08c0-6.08-2.16-9.12-6.47-9.12h-2.66v-3.42h1.02c5.24,0,9.97-1.6,14.19-4.81h2.66ZM45.07,51.96c0-7.86,1.65-15.08,4.94-21.67,4.14-8.19,9.8-12.29,16.98-12.29s12.42,3.51,16.48,10.52c3.3,5.75,4.95,12.38,4.95,19.9s-1.65,15.04-4.95,21.54c-4.14,8.03-9.76,12.04-16.85,12.04s-12.29-3.47-16.35-10.4c-3.46-5.83-5.19-12.38-5.19-19.64ZM54.19,48.29c0,6.68.72,12.68,2.16,18,2.2,8.19,5.78,12.3,10.77,12.3,8.11,0,12.16-8.45,12.16-25.35,0-20.87-4.39-31.3-13.18-31.3-7.94,0-11.91,8.11-11.91,24.33v2.03h0Z"/>
</svg>