<?xml version="1.0" encoding="UTF-8"?>
<svg id="Layer_1" xmlns="http://www.w3.org/2000/svg" version="1.1" viewBox="0 0 100 100">
  <!-- Generator: Adobe Illustrator 29.8.4, SVG Export Plug-In . SVG Version: 2.1.1 Build 6)  -->
  <defs>
    <style>
      .st0 {
        fill: #0d0f0f;
      }

      .st1 {
        fill: #cac5c0;
      }
    </style>
  </defs>
  <circle class="st1" cx="50" cy="50" r="50"/>
  <path class="st0" d="M39.56,52.56l-2.02-3.77,1.34-.81c5.17-3.15,9.9-6.33,14.19-9.56,4.28-3.23,6.43-6.91,6.43-11.05,0-2.78-1.03-5.11-3.09-7-2.06-1.89-4.47-2.83-7.24-2.83-6.44,0-13.23,4-20.39,11.99l-3.35-2.56c7.45-11.32,16.57-16.97,27.34-16.97,4.76,0,8.79,1.17,12.12,3.5,3.77,2.61,5.66,6.15,5.66,10.64,0,3.23-1.35,6.37-4.04,9.43-1.53,1.8-4.23,4.13-8.08,7l-1.62,1.21c.72-.09,1.57-.13,2.56-.13,4.94,0,9,1.89,12.19,5.66,3.19,3.77,4.78,8.17,4.78,13.2,0,8.53-3.59,15.67-10.77,21.42-6.65,5.39-14.33,8.08-23.03,8.08-7.99,0-14.28-1.75-18.86-5.25l2.43-3.37c5.39,2.61,10.28,3.91,14.68,3.91,6.37,0,12.05-2.11,17.03-6.33,4.99-4.22,7.47-9.47,7.47-15.76,0-4.13-1.26-7.65-3.77-10.58-2.52-2.91-5.79-4.37-9.83-4.37-3.68,0-7.72,1.44-12.12,4.31Z"/>
</svg>