<?xml version="1.0" encoding="UTF-8"?>
<svg id="Layer_1" xmlns="http://www.w3.org/2000/svg" version="1.1" viewBox="0 0 100 100">
  <!-- Generator: Adobe Illustrator 29.8.4, SVG Export Plug-In . SVG Version: 2.1.1 Build 6)  -->
  <defs>
    <style>
      .st0 {
        fill: #0d0f0f;
      }

      .st1 {
        fill: #cac5c0;
      }
    </style>
  </defs>
  <circle class="st1" cx="50" cy="50" r="50"/>
  <path class="st0" d="M34.96,11.35h28.94c3.75,0,5.99-.45,6.7-1.35h4.16l-2.42,10.93h-35.31l-3.41,15.79c5.13-2.07,9.67-3.1,13.62-3.1,7.73,0,14.25,2.59,19.56,7.76,5.3,5.17,7.96,11.62,7.96,19.36,0,9-3.46,16.24-10.39,21.72-6.39,5.04-14.16,7.55-23.34,7.55-5.39,0-10.66-.81-15.79-2.43l1.62-4.05c4.32,1.17,8.14,1.75,11.47,1.75,6.65,0,12.48-2.18,17.47-6.54,4.99-4.36,7.49-9.83,7.49-16.39,0-5.66-1.84-10.32-5.53-13.96-3.69-3.65-8.36-5.47-14.03-5.47-5.21,0-10.07,1.8-14.57,5.4l-2.7-.54,8.5-36.42Z"/>
</svg>