<?xml version="1.0" encoding="UTF-8"?>
<svg id="Layer_1" xmlns="http://www.w3.org/2000/svg" version="1.1" viewBox="0 0 100 100">
  <!-- Generator: Adobe Illustrator 29.8.4, SVG Export Plug-In . SVG Version: 2.1.1 Build 6)  -->
  <defs>
    <style>
      .st0 {
        fill: #0d0f0f;
      }

      .st1 {
        fill: #cac5c0;
      }
    </style>
  </defs>
  <circle class="st1" cx="50" cy="50" r="50"/>
  <path class="st0" d="M53.49,90h-11.64v-1.24c0-7.4,2.33-16.66,6.98-27.81,7.04-16.8,13.52-29.67,19.45-38.62l.82-1.23h-27.26c-3.93,0-6.92.82-8.98,2.46-2.06,1.65-3.58,4.39-4.59,8.22h-4.52l4.93-21.78h2.88c1.73.91,4.74,1.37,9.04,1.37h35.61v6.16c-1.27,1.83-2.92,4.75-4.93,8.77-3.84,7.49-7.35,16.21-10.55,26.16-4.74,14.7-7.16,27.21-7.25,37.53Z"/>
</svg>