<?xml version="1.0" encoding="UTF-8"?>
<svg id="Layer_1" xmlns="http://www.w3.org/2000/svg" version="1.1" viewBox="0 0 100 100">
  <!-- Generator: Adobe Illustrator 29.8.4, SVG Export Plug-In . SVG Version: 2.1.1 Build 6)  -->
  <defs>
    <style>
      .st0 {
        fill: #0d0f0f;
      }

      .st1 {
        fill: #cac5c0;
      }
    </style>
  </defs>
  <circle class="st1" cx="50" cy="50" r="50"/>
  <path class="st0" d="M63.4,55.53c-5.92,5.57-11.9,8.35-17.91,8.35-6.56,0-11.81-2.6-15.76-7.81-3.68-4.76-5.52-10.51-5.52-17.24,0-7.27,2.15-13.78,6.46-19.53,4.67-6.2,10.55-9.3,17.65-9.3,8.62,0,15.49,3.73,20.61,11.18,4.58,6.55,6.87,14.32,6.87,23.3,0,12.75-4.22,23.5-12.65,32.26-8.44,8.75-18.99,13.17-31.65,13.26v-4.18c3.86-.18,6.95-.63,9.3-1.34,12.92-3.95,20.47-13.6,22.62-28.96ZM64.21,47.44c.09-1.71.13-3.32.13-4.85,0-6.29-1.07-12.03-3.23-17.24-2.88-6.92-7-10.37-12.39-10.37-4.68,0-8.12,2.38-10.38,7.14-1.8,3.68-2.69,8.13-2.69,13.33,0,5.57.85,10.32,2.56,14.27,2.33,5.39,5.93,8.08,10.78,8.08,5.92,0,10.99-3.46,15.22-10.37Z"/>
</svg>