<?xml version="1.0" encoding="UTF-8"?>
<svg id="Layer_1" xmlns="http://www.w3.org/2000/svg" version="1.1" viewBox="0 0 100 100">
  <!-- Generator: Adobe Illustrator 29.8.4, SVG Export Plug-In . SVG Version: 2.1.1 Build 6)  -->
  <defs>
    <style>
      .st0 {
        fill: none;
        stroke: #000;
        stroke-miterlimit: 10;
        stroke-width: 6px;
      }
    </style>
  </defs>
  <path d="M2.95,20v60.47s22.55-.47,22.55-30.47S2.95,20,2.95,20Z"/>
  <path class="st0" d="M24,50.24s.05-30.24,21-30.24,48.14,30,48.14,30c0,0-27.59,30-48.14,30s-21-29.76-21-29.76Z"/>
  <path d="M24,50.24c.29-5.23,8.14-8.48,18.72-7.75,13.55.94,16.51,12.94,30.5,13.54,9.85.43,17.53-7.4,18.61-5.8,1.68,2.51-13.29,19.73-31.71,25.72-5.41,1.76-18.02,5.86-24.66,0-3.17-2.79-3.62-2.95-9.25-10.79-4.43-6.17-2.34-12.52-2.21-14.93Z"/>
</svg>