<?xml version="1.0" encoding="UTF-8"?>
<svg id="Layer_1" xmlns="http://www.w3.org/2000/svg" version="1.1" viewBox="0 0 100 100">
  <!-- Generator: Adobe Illustrator 29.8.4, SVG Export Plug-In . SVG Version: 2.1.1 Build 6)  -->
  <defs>
    <style>
      .st0 {
        fill: #0d0f0f;
      }

      .st1 {
        fill: #cac5c0;
      }
    </style>
  </defs>
  <circle class="st1" cx="50" cy="50" r="50"/>
  <path class="st0" d="M85.33,58.92h-36l13.18-9.38c-4.9-3.89-10.57-5.83-16.98-5.83-3.21,0-5.41.61-6.59,1.84-1.18,1.23-1.78,3.45-1.78,6.65,0,8.87,4.56,18.34,13.69,28.4l-10.39,10.52c-12.09-14.7-18.13-27.84-18.13-39.42,0-6.93,2.09-12.45,6.27-16.55,4.18-4.1,9.75-6.15,16.67-6.15,8.45,0,17.66,3.21,27.64,9.64l7.73-13.18,4.69,33.47Z"/>
</svg>