<?xml version="1.0" encoding="UTF-8"?>
<svg id="Layer_1" xmlns="http://www.w3.org/2000/svg" version="1.1" viewBox="0 0 100 100">
  <!-- Generator: Adobe Illustrator 29.8.4, SVG Export Plug-In . SVG Version: 2.1.1 Build 6)  -->
  <defs>
    <style>
      .st0 {
        fill: #0d0f0f;
      }

      .st1 {
        fill: #cac5c0;
      }
    </style>
  </defs>
  <path class="st1" d="M100,50c0,27.61-22.38,50-50,50S0,77.61,0,50,22.39,0,50,0s50,22.39,50,50Z"/>
  <path class="st0" d="M56.64,80v-3.3c4.7-.52,7.06-1.89,7.06-4.08,0-1.58-.63-3.16-1.88-4.75l-13.01-16.01-10.27,12.11c-2.57,2.97-3.86,5.43-3.86,7.35,0,2.98,2.35,4.77,7.07,5.39v3.28h-25.05v-3.29c3.17-.61,5.87-1.75,8.1-3.42,1.54-1.22,3.64-3.37,6.28-6.44l15.45-17.92-17.87-21.66c-2.32-2.8-4.12-4.63-5.4-5.51-1.72-1.23-4.12-2.01-7.2-2.36v-3.41h29.54v3.28c-4.45.88-6.68,2.23-6.68,4.07,0,1.23.59,2.59,1.79,4.07l11.82,14.32,9.51-11.69c1.71-2.1,2.57-3.94,2.57-5.52,0-2.63-2.1-4.34-6.3-5.13v-3.41h23.51v3.29c-2.05.44-3.47.83-4.23,1.19-2.57,1.23-6.5,4.87-11.8,10.92-.85.97-4.45,5.39-10.79,13.28l18.98,23.36c4.11,5.08,8.3,7.97,12.59,8.67v3.29h-29.92Z"/>
</svg>